<?xml version="1.0" encoding="UTF-8"?>
<svg version="1.1" xmlns="http://www.w3.org/2000/svg" width="1090" height="1091">
<path d="M0 0 C1.09620012 -0.00384115 2.19240023 -0.00768229 3.32181853 -0.01163983 C4.52578585 -0.01077335 5.72975317 -0.00990687 6.97020435 -0.00901413 C8.2495074 -0.01198525 9.52881045 -0.01495637 10.84688026 -0.01801753 C14.40056553 -0.02608576 17.95423061 -0.027877 21.50792396 -0.028615 C25.33969628 -0.03046588 29.17145811 -0.03801343 33.00322437 -0.04475021 C41.38348838 -0.05833313 49.76374761 -0.06435828 58.1440208 -0.06876087 C63.37711708 -0.07152355 68.61021151 -0.07576097 73.84330654 -0.08026505 C88.33315604 -0.09245801 102.82300406 -0.10275704 117.31285858 -0.10614014 C118.24028397 -0.1063597 119.16770936 -0.10657927 120.12323855 -0.10680549 C121.51770175 -0.10713291 121.51770175 -0.10713291 122.94033593 -0.10746694 C124.82413749 -0.1079104 126.70793905 -0.10835697 128.59174061 -0.10880661 C129.52617085 -0.10902804 130.46060108 -0.10924947 131.42334739 -0.10947761 C146.56164022 -0.11342492 161.69988488 -0.13087676 176.83815911 -0.15416613 C192.38165169 -0.1778858 207.92512011 -0.19034228 223.46863109 -0.19150805 C232.19520236 -0.19242451 240.9217109 -0.19816923 249.64826488 -0.21632767 C257.0798493 -0.231737 264.5113516 -0.23684423 271.94294896 -0.22858956 C275.73342738 -0.22468591 279.52374047 -0.22559862 283.31419849 -0.23964691 C287.42727332 -0.2547512 291.53997647 -0.24651088 295.65306568 -0.23606491 C296.84587939 -0.24412132 298.03869311 -0.25217772 299.26765269 -0.26047826 C310.42548527 -0.19419102 318.53319467 2.2485783 326.62909412 10.13142776 C334.14976731 19.22694277 334.92614721 27.40040121 334.89651966 38.86453629 C334.90105077 40.14978059 334.90558189 41.4350249 334.91025031 42.75921601 C334.92245459 46.31561618 334.92222289 49.87192209 334.91986156 53.42833841 C334.91945274 57.26826632 334.93049868 61.10816427 334.93997669 64.94807816 C334.95657332 72.46697082 334.96208562 79.98583213 334.96320145 87.50474159 C334.96415251 93.61767072 334.96826574 99.73058953 334.9746027 105.8435154 C334.99221112 123.18282842 335.00144214 140.5221167 334.99994175 157.86143873 C334.99982188 159.26291655 334.99982188 159.26291655 334.99969959 160.69270706 C334.99961783 161.6281691 334.99953607 162.56363114 334.99945183 163.52744051 C334.99863895 178.68752033 335.01777827 193.8475008 335.04597633 209.00755189 C335.0747155 224.58165977 335.08851607 240.15571921 335.08678877 255.72985429 C335.08612525 264.47040166 335.09160108 273.21084487 335.11314487 281.95136833 C335.13137022 289.393122 335.13569288 296.83472426 335.12212603 304.27649061 C335.11560329 308.07120845 335.11545377 311.86563592 335.13283253 315.660326 C335.15150313 319.77955902 335.13899084 323.89812195 335.12357044 328.01736832 C335.13385757 329.20911378 335.14414469 330.40085924 335.15474355 331.6287182 C335.0760146 341.15453244 333.06758047 349.21385884 326.56659412 356.44392776 C325.55919178 357.61375198 325.55919178 357.61375198 324.53143787 358.80720901 C316.70691101 365.0731491 308.74252775 366.87171776 298.91574574 366.75720596 C297.22481558 366.76762278 297.22481558 366.76762278 295.49972522 366.77825004 C291.74969166 366.79541326 288.00069218 366.77725381 284.25067616 366.75911331 C281.55093805 366.7642952 278.85127375 366.77146392 276.15155506 366.781147 C270.35074186 366.79811795 264.55015736 366.7972078 258.7493372 366.78414345 C250.34837313 366.76542701 241.94764417 366.77633038 233.54668854 366.79462001 C219.89559349 366.82372756 206.24457156 366.83213105 192.59344959 366.82600784 C179.37078485 366.8201482 166.14814473 366.81907106 152.92548084 366.82796097 C151.70422497 366.82877483 151.70422497 366.82877483 150.45829727 366.82960512 C141.55818836 366.83577925 132.65808562 366.84452736 123.75798321 366.85695744 C122.58256655 366.85859617 122.58256655 366.85859617 121.3834041 366.860268 C118.24960418 366.86468844 115.11580442 366.86916288 111.9820051 366.87399361 C102.83290464 366.88807088 93.68388671 366.89417372 84.5347781 366.88545773 C78.79221066 366.88025339 73.04967055 366.88167005 67.30710448 366.88816079 C64.00014666 366.89158926 60.69329133 366.89059766 57.38633823 366.88293266 C53.78962535 366.87499887 50.19311975 366.87939511 46.5964098 366.88660049 C45.56787832 366.88125516 44.53934685 366.87590983 43.47964776 366.87040251 C23.93896707 366.95773116 6.44116704 371.99331697 -7.97246838 385.58455276 C-25.61685992 404.35015982 -26.67618188 425.60441876 -26.64556408 450.01741409 C-26.64991757 452.31846659 -26.65510283 454.61951764 -26.66105175 456.92056656 C-26.67438466 463.13969744 -26.67502678 469.35876733 -26.67248845 475.57790971 C-26.67141483 480.78382147 -26.67631211 485.9897211 -26.68109387 491.19563025 C-26.69280139 504.18611755 -26.6919753 517.1765703 -26.68553706 530.1670598 C-26.6803708 541.41368145 -26.69162057 552.66021642 -26.71063528 563.90682093 C-26.73007058 575.49220631 -26.73796919 587.07754708 -26.73451203 598.66294879 C-26.73270538 605.1522825 -26.73527346 611.64153681 -26.74922657 618.13085747 C-26.76186558 624.23688939 -26.75980358 630.34274867 -26.74681568 636.44877815 C-26.74446352 638.67868612 -26.74713527 640.90860647 -26.7554388 643.13850021 C-26.83849515 667.19357348 -24.04371744 687.32697314 -7.18340588 705.81892776 C10.67617629 722.74281428 32.53100942 723.43469834 55.60101795 723.40608597 C57.92324963 723.41043853 60.24547988 723.41562348 62.56770802 723.42157364 C68.84881229 723.43491665 75.12985621 723.43554752 81.41097188 723.43301034 C87.33301866 723.43180135 93.25505545 723.43802865 99.17709919 723.4434438 C111.62452267 723.45429561 124.071919 723.45216812 136.51934399 723.44605895 C147.8766354 723.44089255 159.23384096 723.45214213 170.59111539 723.47115717 C182.28607415 723.49058567 193.98099241 723.49878277 205.6759674 723.49503392 C212.22844104 723.4932263 218.78083605 723.4958051 225.33329678 723.50974846 C231.49840766 723.52237771 237.66334749 723.52033457 243.82845592 723.50733757 C246.08135888 723.50498329 248.33427406 723.50766491 250.58716297 723.51596069 C274.12555126 723.5963356 294.16877754 720.99311256 311.94940662 703.90095901 C318.84451375 696.49461771 323.37910022 688.66787271 326.44159412 679.06892776 C326.64873035 678.42044876 326.85586658 677.77196976 327.06927967 677.10383987 C329.46225041 669.06979105 329.77623353 660.95863154 329.77093983 652.62361526 C329.77441425 651.71992203 329.77788868 650.81622879 329.78146839 649.88515091 C329.7887729 647.93894936 329.79414625 645.99273977 329.79775906 644.04652786 C329.80498402 640.96001473 329.82069281 637.87365516 329.83910084 634.78718948 C329.89130359 626.01719065 329.93955536 617.24728198 329.95502186 608.47713089 C329.96512639 603.09789755 329.99450332 597.7190611 330.03634167 592.33998489 C330.04861022 590.2987964 330.05378054 588.25755181 330.05154324 586.21632767 C330.04917897 583.35686958 330.07143854 580.49854463 330.09906483 577.63924026 C330.09246342 576.80676773 330.08586201 575.9742952 330.07906055 575.11659622 C330.21990604 566.18872165 333.751161 559.37629406 339.76971912 552.92049026 C345.78857287 547.12924023 351.73264904 543.8867796 360.29015446 543.87415886 C361.40017016 543.86770997 362.51018586 543.86126107 363.6538384 543.85461676 C364.86297076 543.85771397 366.07210312 543.86081117 367.31787586 543.86400223 C368.61043285 543.85947111 369.90298984 543.85494 371.23471522 543.85027158 C374.81617766 543.8380513 378.39754661 543.8383009 381.97902513 543.84066033 C385.84419233 543.84106875 389.70932966 543.83002695 393.57448292 543.8205452 C401.1449817 543.80393926 408.71544934 543.79843582 416.28596482 543.79732044 C422.44087056 543.79636972 428.59576603 543.79225821 434.75066853 543.78591919 C452.20656472 543.76830743 469.66243633 543.75908015 487.11834148 543.76058014 C488.05919942 543.76066005 489.00005736 543.76073996 489.96942616 543.7608223 C491.38243931 543.76094494 491.38243931 543.76094494 492.82399818 543.76107006 C508.08760573 543.76188281 523.35111456 543.74274775 538.61469355 543.71454556 C554.29273087 543.68580654 569.97072007 543.67200585 585.6487844 543.67373312 C594.4485912 543.67439669 603.24829453 543.66891859 612.04807758 543.64737701 C619.5410921 543.62915176 627.03395625 543.62482885 634.52698335 543.63839586 C638.34802197 543.64491893 642.16877223 543.64506694 645.98978329 543.62768936 C650.13753223 543.60902032 654.28461562 543.62153037 658.43237782 543.63695145 C660.23269203 543.62152076 660.23269203 543.62152076 662.06937623 543.60577834 C672.2749901 543.68955481 680.34759617 546.04135798 687.87518787 553.14314651 C695.87972257 562.2173295 696.92845952 571.98703751 696.90375233 583.60921097 C696.91141872 585.47396576 696.91141872 585.47396576 696.91924 587.37639236 C696.93072613 590.77124999 696.93321462 594.16586275 696.9306767 597.56072259 C696.92960298 600.40335576 696.93450072 603.24596671 696.93928212 606.08859509 C696.95035924 612.80072502 696.95082528 619.51279899 696.94476795 626.22493362 C696.93873335 633.12831682 696.95103013 640.03149593 696.97233802 646.93484432 C696.99000717 652.87990398 696.99594691 658.82489902 696.99270028 664.76998395 C696.99089523 668.31264912 696.99344491 671.8551688 697.00741482 675.39780998 C697.02243205 679.35377369 697.0129767 683.30948166 697.00140858 687.26546097 C697.01287418 689.00440376 697.01287418 689.00440376 697.02457142 690.77847672 C696.95175859 702.08354406 694.73399625 710.96406011 686.62909412 719.13142776 C678.30538898 725.89172395 671.06465977 727.42979971 660.5372057 727.38971329 C658.85585877 727.39522684 658.85585877 727.39522684 657.14054525 727.40085179 C653.38228746 727.41083646 649.62417749 727.40667989 645.86591053 727.402668 C643.17180249 727.40705496 640.47770776 727.41224673 637.78360462 727.41850662 C631.97895899 727.43054458 626.1743408 727.43565923 620.36968327 727.43638802 C611.95973584 727.43771575 603.54985475 727.45284717 595.13993077 727.47188319 C581.47177599 727.50272319 567.80361953 727.52688614 554.13544178 727.54475784 C553.31762208 727.54583052 552.49980238 727.5469032 551.65720026 727.54800839 C542.54517189 727.55981356 533.43314284 727.57002017 524.32111073 727.57844925 C521.02289293 727.58152288 517.72467516 727.58461174 514.42645741 727.58772659 C513.61266942 727.58849193 512.79888143 727.58925727 511.9604332 727.5900458 C498.35478895 727.60316165 484.74919248 727.62785149 471.14358366 727.66147 C462.76412812 727.68168244 454.38477506 727.69206013 446.00529496 727.68948079 C440.25188525 727.68843975 434.49855615 727.69817769 428.7451746 727.71611982 C425.43376653 727.72609002 422.12268506 727.72971092 418.81124592 727.72335243 C393.5753479 727.67999978 372.25310254 729.450695 352.87909412 747.44392776 C335.3768 765.86960431 335.18551111 788.29686152 335.26019764 812.15755081 C335.25941309 814.89050806 335.2540469 817.62345153 335.24878407 820.35640335 C335.23967263 826.21932598 335.24092154 832.08217014 335.24896908 837.94509315 C335.26025344 846.43363228 335.25111341 854.92206084 335.23640727 863.41059039 C335.21269141 877.20205576 335.19927836 890.99350743 335.19525623 904.78499222 C335.19488893 906.02036085 335.19488893 906.02036085 335.19451421 907.28068642 C335.19196715 916.47324337 335.19140237 925.66579926 335.19244862 934.85835648 C335.19278169 938.19522985 335.19306706 941.53210321 335.19330311 944.86897659 C335.1933659 945.6924508 335.19342868 946.515925 335.19349337 947.36435296 C335.19409886 961.11148005 335.17919352 974.85854383 335.15247005 988.60564452 C335.13670008 997.07013846 335.13436988 1005.53442752 335.14960407 1013.99892352 C335.15908959 1019.79848464 335.15428214 1025.59792244 335.13839025 1031.39746913 C335.12972162 1034.73878451 335.12970265 1038.0795023 335.14291668 1041.42084312 C335.15631502 1045.05116478 335.14505318 1048.68062926 335.12788868 1052.3109169 C335.14259884 1053.87689236 335.14259884 1053.87689236 335.15760618 1055.4745037 C335.05606907 1065.89678537 332.17140388 1074.60687936 324.91815662 1082.18611526 C318.5978305 1087.55731391 311.4893955 1090.25010311 303.26377487 1090.26564884 C301.6213248 1090.27233561 301.6213248 1090.27233561 299.94569391 1090.27915746 C298.74309083 1090.2789731 297.54048775 1090.27878873 296.30144215 1090.27859879 C295.02355023 1090.28227547 293.74565831 1090.28595216 292.4290424 1090.28974026 C288.8792208 1090.29975164 285.3294161 1090.30347567 281.77958238 1090.30612957 C277.95186005 1090.31003523 274.12415107 1090.31961344 270.29643726 1090.32834244 C261.05066223 1090.34810024 251.8048861 1090.35817253 242.55909523 1090.36707023 C238.20364901 1090.37145455 233.84820401 1090.37682102 229.49275875 1090.3820591 C215.01149307 1090.39907126 200.53022815 1090.41356478 186.04895401 1090.42080784 C182.2914063 1090.42271769 178.5338586 1090.42463803 174.77631092 1090.42659378 C173.37545249 1090.42731939 173.37545249 1090.42731939 171.9462939 1090.42805966 C156.82226961 1090.43635753 141.69832447 1090.46169039 126.57433473 1090.49417446 C111.04213295 1090.52726292 95.50997136 1090.54525825 79.97773415 1090.54845208 C71.25890066 1090.5506156 62.54018258 1090.55934104 53.82138348 1090.58491325 C46.39496458 1090.60664474 38.96868913 1090.61465868 31.54224204 1090.60494647 C27.75551607 1090.60040873 23.9690859 1090.60225694 20.1824007 1090.62170792 C16.06993743 1090.64264911 11.95812707 1090.63233197 7.8456316 1090.61917496 C6.65864357 1090.6301442 5.47165554 1090.64111345 4.24869817 1090.6524151 C-6.6118101 1090.56870049 -15.48377013 1088.01040331 -23.42559338 1080.42439651 C-28.18300943 1074.81675952 -31.49205646 1067.8567747 -31.50119114 1060.46255493 C-31.50481549 1059.4974483 -31.50843983 1058.53234167 -31.51217401 1057.53798938 C-31.51057163 1055.94391942 -31.51057163 1055.94391942 -31.50893688 1054.31764603 C-31.51175816 1053.19043868 -31.51457944 1052.06323134 -31.51748621 1050.9018662 C-31.52585484 1047.10435642 -31.52717243 1043.30687571 -31.52862072 1039.50935745 C-31.53272036 1036.79436906 -31.53836422 1034.07938451 -31.54401684 1031.36439896 C-31.55554992 1025.50568426 -31.56379077 1019.64697244 -31.57013607 1013.78824997 C-31.58046634 1004.51730837 -31.60103343 995.24640257 -31.62325573 985.97548294 C-31.63073602 982.80220044 -31.63814976 979.62891778 -31.6455431 976.45563507 C-31.64739366 975.66249066 -31.64924423 974.86934625 -31.65115087 974.05216716 C-31.67208573 965.01967159 -31.69090753 955.98717204 -31.7087965 946.95466995 C-31.71043468 946.12891021 -31.71207287 945.30315046 -31.71376069 944.45236769 C-31.739997 931.09638756 -31.75866628 917.74040468 -31.7753884 904.38440976 C-31.79284831 890.66020946 -31.82173888 876.93606298 -31.86027777 863.21190572 C-31.88360287 854.75511259 -31.89766558 846.29840728 -31.89960541 837.84158173 C-31.9017252 832.03441474 -31.91474088 826.22733474 -31.93608473 820.42020687 C-31.94803659 817.07654555 -31.95366611 813.73320148 -31.94937229 810.38949966 C-31.58934429 786.45578319 -31.58934429 786.45578319 -38.87090588 763.94392776 C-39.21202404 763.28594193 -39.5531422 762.62795609 -39.90459728 761.95003128 C-48.06618918 746.99557292 -61.97638865 736.12103829 -78.2683239 731.26842022 C-91.20210301 728.28790826 -104.22886608 728.72100832 -117.43462658 728.76253128 C-120.15950177 728.76174644 -122.88436316 728.75637965 -125.6092329 728.75111771 C-131.45140495 728.74201179 -137.29349824 728.74325079 -143.13567066 728.75130272 C-151.59309327 728.76259192 -160.050405 728.75344306 -168.50781801 728.73874091 C-182.24774188 728.7150328 -195.98765199 728.70161306 -209.72759533 728.69758987 C-210.54788061 728.69734501 -211.36816589 728.69710014 -212.2133083 728.69684785 C-221.37165571 728.69430011 -230.53000205 728.69373641 -239.68834972 728.69478226 C-243.01425711 728.69511534 -246.3401645 728.69540071 -249.66607189 728.69563675 C-250.48686178 728.69569954 -251.30765166 728.69576232 -252.15331397 728.69582701 C-265.85187747 728.69643234 -279.55037742 728.68153482 -293.24891442 728.65480369 C-301.68353617 728.63902922 -310.11795231 728.63670824 -318.55257615 728.65193772 C-324.32969423 728.6614176 -330.10668845 728.65662448 -335.88379202 728.64072389 C-339.21283967 728.63204901 -342.54128697 728.63204732 -345.87036037 728.64525032 C-349.48565355 728.65863219 -353.10008378 728.64740089 -356.71534252 728.63022232 C-358.27882765 728.64493249 -358.27882765 728.64493249 -359.87389833 728.65993983 C-369.62084992 728.56439121 -377.49976815 725.78232161 -384.61699963 719.05330276 C-392.80024978 710.08635605 -393.66873024 701.16066966 -393.63833141 689.43628311 C-393.64286253 688.15512235 -393.64739364 686.8739616 -393.65206206 685.55397779 C-393.664266 682.00897911 -393.66403469 678.46407499 -393.66167331 674.91906011 C-393.66126448 671.09140221 -393.67231052 667.26377435 -393.68178844 663.43613052 C-393.69838489 655.94130131 -393.70389737 648.44650355 -393.7050132 640.9516575 C-393.70596428 634.8582745 -393.71007754 628.76490186 -393.71641445 622.67152214 C-393.73402282 605.38754663 -393.7432539 588.10359594 -393.7417535 570.81961139 C-393.74167359 569.88827984 -393.74159368 568.95694828 -393.74151134 567.99739456 C-393.74142958 567.06492314 -393.74134782 566.13245172 -393.74126358 565.17172358 C-393.7404507 550.06014257 -393.75959 534.94866123 -393.78778808 519.83710905 C-393.81652746 504.31272169 -393.83032781 488.78838293 -393.82860053 473.26396829 C-393.82793701 464.55136645 -393.83341252 455.83886912 -393.85495663 447.12629128 C-393.87318225 439.70832603 -393.87750441 432.29051268 -393.86393778 424.87253471 C-393.85741518 421.08996813 -393.85726501 417.30769285 -393.87464428 413.52515411 C-393.89331568 409.4190576 -393.88080223 405.31363327 -393.86538219 401.20752335 C-393.87566932 400.01966883 -393.88595645 398.83181432 -393.8965553 397.60796422 C-393.80857193 386.99573221 -390.87557322 377.86854056 -383.37090588 370.13142776 C-374.71318357 363.02198426 -366.97247774 361.83187149 -356.06937695 361.87314224 C-354.37238103 361.86762869 -354.37238103 361.86762869 -352.64110237 361.86200374 C-348.85364388 361.8520311 -345.06633241 361.85617322 -341.27886486 361.86018753 C-338.56166126 361.85692125 -335.84446694 361.85060788 -333.12726879 361.84434891 C-327.27625492 361.83231796 -321.42526825 361.82719669 -315.57424259 361.82646751 C-307.09945632 361.82513942 -298.62473582 361.81000534 -290.1499728 361.79097234 C-276.37914289 361.76014264 -262.6083113 361.73597377 -248.83745861 361.71809769 C-248.01369856 361.71702501 -247.18993851 361.71595233 -246.34121604 361.71484714 C-237.1589551 361.703037 -227.97669349 361.69283047 -218.79442883 361.68440628 C-215.4686028 361.68133251 -212.14277679 361.67824368 -208.8169508 361.67512894 C-207.99632074 361.6743636 -207.17569067 361.67359826 -206.33019304 361.67280973 C-192.61830579 361.65970155 -178.90646604 361.63502383 -165.19461399 361.60138553 C-156.74829333 361.5811582 -148.30207447 361.57079747 -139.85572941 361.57337474 C-134.05982715 361.57441445 -128.26400507 361.56469885 -122.46813082 361.54673571 C-119.13063562 361.53674959 -115.79346561 361.53315642 -112.45593929 361.5395031 C-89.0708001 361.80988543 -89.0708001 361.80988543 -67.12090588 354.50642776 C-66.45397717 354.16232864 -65.78704845 353.81822952 -65.09990978 353.46370316 C-59.03668756 350.20030179 -54.12759561 346.10765702 -49.37090588 341.13142776 C-48.82434338 340.61580276 -48.27778088 340.10017776 -47.71465588 339.56892776 C-44.02435732 335.80011221 -41.62189261 331.26255471 -39.18340588 326.63142776 C-38.68333019 325.71671707 -38.68333019 325.71671707 -38.17315197 324.78352737 C-30.62772474 309.74773517 -31.95071611 292.38077253 -32.00200939 276.06770706 C-32.00122455 273.34283187 -31.99585776 270.61797049 -31.99059582 267.89310074 C-31.9814899 262.05092869 -31.9827289 256.20883541 -31.99078083 250.36666298 C-32.00207003 241.90924037 -31.99292117 233.45192864 -31.97821902 224.99451564 C-31.95451092 211.25459177 -31.94109117 197.51468166 -31.93706799 183.77473831 C-31.93682312 182.95445303 -31.93657825 182.13416775 -31.93632596 181.28902534 C-31.93377822 172.13067793 -31.93321452 162.97233159 -31.93426037 153.81398392 C-31.93459345 150.48807653 -31.93487882 147.16216914 -31.93511486 143.83626175 C-31.93520904 142.60507692 -31.93520904 142.60507692 -31.93530513 141.34901967 C-31.93591045 127.65045617 -31.92101293 113.95195622 -31.8942818 100.25341922 C-31.87850733 91.81879747 -31.87618635 83.38438133 -31.89141583 74.94975749 C-31.90089571 69.17263941 -31.89610259 63.39564519 -31.880202 57.61854162 C-31.87152712 54.28949397 -31.87152543 50.96104667 -31.88472843 47.63197327 C-31.8981103 44.01668009 -31.886879 40.40224986 -31.86970043 36.78699112 C-31.8844106 35.223506 -31.8844106 35.223506 -31.89941794 33.62843531 C-31.79932058 23.41746509 -28.67966858 15.5391074 -21.65996838 8.11189651 C-15.38656919 2.68422862 -8.21744329 0.01081104 0 0 Z " fill="#000000" transform="translate(393.37090587615967,0.8685722351074219)"/>
</svg>
